# xmcd
#
# Track frame offsets:
#        187
#        33692
#        70345
#        88060
#        110367
#        134302
#        150560
#        170232
#        200342
#
# Disc length: 2886 seconds
#
# Revision: 3
# Processed by: cddbd v1.5.1PL0 Copyright (c) Steve Scherf et al.
# Submitted via: ExactAudioCopy v0.95a5
#
DISCID=7d0b4409
DTITLE=Stevie Wonder - Music Of My Mind
DYEAR=1972
DGENRE=Soul
TTITLE0=Love Having You Around
TTITLE1=Superwoman (Where Were You When I Needed You)
TTITLE2=I Love Everylittle Thing About You
TTITLE3=Sweet Little Girl
TTITLE4=Happier Than The Morning Sun
TTITLE5=Girl Blue
TTITLE6=Seems So Long
TTITLE7=Keep On Running
TTITLE8=Evil
EXTD=YEAR: 1972
EXTT0=
EXTT1=
EXTT2=
EXTT3=
EXTT4=
EXTT5=
EXTT6=
EXTT7=
EXTT8=
PLAYORDER=
